<?xml version='1.0' encoding='utf-8'?>
<svg xmlns="http://www.w3.org/2000/svg" version="1.1" id="Layer_1" x="0px" y="0px" viewBox="0 0 500 500" style="enable-background:new 0 0 500 500;"> <style type="text/css"> .st0{fill:#A7D3A7;} .st1{fill-rule:evenodd;clip-rule:evenodd;fill:#FD5C0C;} .st2{fill:#BF3500;} .st3{fill:#FEA511;} .st4{fill:#E8F7F7;} .st5{fill:#15ACC3;} .st6{fill:#7ED3D4;} .st7{fill:#92DADB;} .st8{fill:#5BC7C8;} </style> <rect class="st0" width="500" height="500"/> <g> <path class="st1" d="M166.3,105.1c0-1.2,0-2.2-0.1-3.3c0-0.6,0-1.1,0.8-1.3c2.4-0.6,4.7-1.2,7-1.8c0.5-0.1,0.9,0.1,1.1,0.6 c1.5,3.3,3.9,5.9,7.1,7.6c2,1,4.1,1.6,6.4,1.5c4.7-0.1,8.5-2.2,11.6-5.7c0.4-0.4,0.8-0.5,1.2-0.3c2.2,1.3,4.4,2.6,6.6,4 c0.6,0.4,0.2,0.9,0.1,1.3c-0.7,2-1.1,4-0.8,6.1c0.5,4.7,3.2,8,6.8,10.6c1.7,1.3,3.7,2.1,5.9,2.2c0.7,0.1,1.4,0,2.2,0 c0.2,0,0.6,0.3,0.6,0.5c0.7,2.2,1.2,4.4,1.8,6.6c0,0.2,0.1,0.3,0.2,0.5c0.1,0.6,0,1-0.6,1.3c-3.5,1.5-6.4,3.8-8,7.4 c-0.7,1.6-1.1,3.4-1,5.2c0.1,2,0.7,3.8,1.6,5.6c1,1.9,2.4,3.5,4.1,4.8c0.5,0.4,0.7,0.8,0.4,1.2c-1.3,2.2-2.6,4.4-3.9,6.5 c-0.1,0.2-0.5,0.3-0.8,0.3c-0.7-0.1-1.4-0.5-2.2-0.6c-3.1-0.5-6,0.1-8.7,1.7c-2.5,1.4-4.6,3.1-6.1,5.5c-1.4,2.4-1.9,5-1.7,7.8 c0.1,1,0,1.3-1,1.6c-2.2,0.6-4.5,1.2-6.8,1.8c-0.5,0.1-0.9,0-1.2-0.6c-1.5-3.3-3.9-5.9-7.1-7.6c-1.8-1-3.8-1.6-5.8-1.6 c-4.9,0-8.9,2-12.1,5.7c-0.5,0.6-0.9,0.5-1.4,0.2c-1.9-1.1-3.9-2.2-5.8-3.4c-1-0.6-0.9-0.8-0.6-2c0.5-1.8,0.8-3.6,0.8-5.4 c-0.1-3-1.5-5.6-3.4-7.9c-2.9-3.4-6.7-4.8-11.1-4.4c-0.7,0.1-1.2-0.1-1.4-0.9c-0.6-2.3-1.2-4.6-1.8-6.9c-0.1-0.5,0-0.9,0.6-1.2 c3.4-1.5,5.9-3.9,7.7-7.2c0.9-1.7,1.5-3.6,1.5-5.6c0-3.7-1.5-6.9-4-9.5c-0.6-0.6-1.3-1.2-1.9-1.8c-0.4-0.3-0.5-0.8-0.2-1.2 c1.3-2.1,2.6-4.3,3.8-6.4c0.3-0.5,0.6-0.5,1-0.3c0.7,0.2,1.3,0.5,2,0.6c3.9,0.7,7.4-0.6,10.5-2.8c2-1.4,3.7-3.1,4.8-5.2 C165.7,107.7,165.9,106.3,166.3,105.1z M184.7,123.6c-10-1.3-19,5.5-20.4,15.4c-1.4,10,5.4,19,15.3,20.4c10,1.4,19.1-5.4,20.5-15.4 C201.4,134.1,194.6,125.1,184.7,123.6z"/> <g> <path class="st2" d="M161.5,231.9c-4.4-12.7-3.5-25.3,1.5-32.7c-8-6.6-17.5-11-27.7-12.9c-2.9,8.4-12.1,16.7-24.6,21 c-12.5,4.4-25,3.5-32.4-1.3c-6.9,7.8-11.6,17.2-13.9,27.3c8.6,2.6,17.2,12,21.6,24.8c4.7,13.5,3.4,26.8-2.5,34 c7.9,7.1,17.6,11.9,28,14.1c1.8-9.2,11.5-18.7,25.2-23.5c13.7-4.8,27.2-3.3,34.3,2.7c6.7-8.1,11.3-17.9,13.1-28.4 C175.4,255,166.2,245.3,161.5,231.9z M130,263.1c-9.2,3.2-19.3-1.7-22.5-10.9c-3.2-9.2,1.7-19.2,10.9-22.4 c9.2-3.2,19.3,1.7,22.5,10.9C144.1,249.8,139.2,259.9,130,263.1z M93.6,232.6c-2.3,0.8-4.8-0.4-5.6-2.7c-0.8-2.3,0.4-4.8,2.7-5.6 c2.3-0.8,4.8,0.4,5.6,2.7C97.1,229.3,95.9,231.8,93.6,232.6z M142.1,215.8c-2.3,0.8-4.8-0.4-5.6-2.7c-0.8-2.3,0.4-4.8,2.7-5.6 c2.3-0.8,4.8,0.4,5.6,2.7C145.6,212.5,144.4,215,142.1,215.8z M110.8,282.1c-2.3,0.8-4.8-0.4-5.6-2.7c-0.8-2.3,0.4-4.8,2.7-5.6 c2.3-0.8,4.8,0.4,5.6,2.7C114.3,278.8,113.1,281.3,110.8,282.1z M159.3,265.3c-2.3,0.8-4.8-0.4-5.6-2.7c-0.8-2.3,0.4-4.8,2.7-5.6 c2.3-0.8,4.8,0.4,5.6,2.7C162.8,262,161.6,264.5,159.3,265.3z"/> </g> <g> <path class="st2" d="M292.9,158.8v111.9H181c0,61.8,50.1,111.9,111.9,111.9c61.8,0,111.9-50.1,111.9-111.9 C404.7,208.9,354.6,158.8,292.9,158.8z"/> </g> <path class="st3" d="M292.9,416.1c-80.2,0-145.5-65.3-145.5-145.5c0-80.2,65.3-145.5,145.5-145.5c80.2,0,145.5,65.3,145.5,145.5 C438.4,350.9,373.1,416.1,292.9,416.1z M292.9,148.3c-67.5,0-122.4,54.9-122.4,122.4S225.4,393,292.9,393s122.4-54.9,122.4-122.4 S360.3,148.3,292.9,148.3z"/> <rect x="210.2" y="208.5" class="st4" width="171.2" height="115.7"/> <rect x="275" y="333.4" class="st4" width="53.2" height="6.9"/> <g> <rect x="221.8" y="224.7" class="st5" width="48.6" height="81"/> <rect x="270.4" y="247.8" class="st6" width="48.6" height="57.8"/> <rect x="318.9" y="266.3" class="st7" width="50.9" height="39.3"/> </g> <path class="st8" d="M367.9,315.9c0-2-1.6-3.6-3.6-3.6c-2,0-3.6,1.6-3.6,3.6c0,2,1.6,3.6,3.6,3.6 C366.3,319.6,367.9,317.9,367.9,315.9z"/> <path class="st3" d="M63.3,407.4l86.9-43.4c7.5-3.9,10.5-13.1,6.6-20.6l0,0c-3.9-7.5-13.1-10.5-20.6-6.6l-86.9,43.4L63.3,407.4z"/> <path class="st2" d="M423,441.9c0-3.9-57.3-7.1-128-7.1c-70.7,0-128,3.2-128,7.1c0,3.9,57.3,7.1,128,7.1 C365.7,449,423,445.8,423,441.9z"/> <path class="st2" d="M105.3,180.7c-0.7,0-1.3-0.4-1.6-1.1c-0.9-2-2.3-3.5-4.3-4.6c-1.2-0.6-2.3-0.9-3.4-0.9c-2.9,0-5.3,1.2-7.3,3.4 c-0.5,0.6-1,0.7-1.4,0.7c-0.3,0-0.7-0.1-1-0.3c-1.3-0.7-2.6-1.5-3.9-2.3c-1.3-0.8-1.2-1.6-1-2.5c0.4-1.5,0.6-2.5,0.6-3.5 c0-1.5-0.7-3-2-4.6c-1.7-2-3.9-2.8-6.5-2.6l-0.3,0c-1,0-1.6-0.5-1.9-1.5c-0.2-0.8-0.4-1.6-0.6-2.5l-0.6-2.2c-0.2-0.9,0.2-1.8,1-2.2 c2-0.9,3.6-2.4,4.6-4.4c0.6-1.2,0.9-2.2,0.9-3.2c0-2.1-0.8-3.9-2.4-5.6c-0.2-0.2-0.5-0.5-0.7-0.7l-0.5-0.5 c-0.7-0.5-0.8-1.4-0.3-2.2l2.6-4.3c0.4-0.7,1.2-1,2.1-0.7l0.5,0.1c0.2,0.1,0.5,0.2,0.7,0.2c0.4,0.1,0.8,0.1,1.2,0.1l0,0 c1.7,0,3.3-0.6,5.1-1.8c1.4-0.9,2.3-1.9,2.8-3.1c0.2-0.5,0.4-1,0.5-1.5c0.1-0.3,0.1-0.5,0.2-0.8l0-0.6c0-0.5,0-0.9,0-1.4 c0-1.1,0.5-1.8,1.4-2.1c1.3-0.3,2.6-0.7,3.9-1l1.3-0.3c0.7,0,1.3,0.4,1.6,1.1c0.9,2,2.3,3.5,4.3,4.6c1.2,0.6,2.3,0.9,3.4,0.9l0.3,0 c2.7-0.1,5-1.2,7-3.4c0.5-0.6,1.4-0.8,2.2-0.4l4.5,2.7c0.4,0.2,1.2,0.9,0.6,2.2c-0.5,1.4-0.7,2.5-0.5,3.7c0.3,2.5,1.6,4.5,4.2,6.4 c1,0.8,2.1,1.2,3.3,1.3c0.1,0,0.2,0,0.3,0l1,0l0.3,0c0.5,0.1,1.2,0.5,1.4,1.2c0.2,0.8,0.5,1.7,0.7,2.5c0.2,0.6,0.4,1.3,0.5,1.9 c0.1,0.1,0.1,0.3,0.1,0.5c0.2,1.3-0.6,1.9-1.1,2.1c-2.3,1-3.9,2.5-4.8,4.4c-0.4,1-0.6,2-0.6,3c0.1,1.2,0.4,2.3,1,3.3 c0.6,1.1,1.4,2.1,2.5,2.9c0.9,0.7,0.9,1.7,0.5,2.3c-0.8,1.5-1.7,2.9-2.6,4.4c-0.3,0.5-1,0.7-1.4,0.7l-0.4,0c-0.2,0-0.5-0.1-0.7-0.2 c-0.2-0.1-0.4-0.1-0.6-0.2c-1.9-0.3-3.4,0-5.1,1c-1.8,1-2.9,2-3.7,3.3c-0.8,1.3-1.1,2.8-1,4.5c0.1,0.9,0,1.9-1.5,2.3L105.3,180.7z M96,171.8c1.5,0,3,0.4,4.5,1.2c2.3,1.2,4,3,5.1,5.3l4-1.1c-0.2-2.2,0.3-4.1,1.3-5.8c1-1.7,2.5-3,4.6-4.1c2.2-1.2,4.3-1.6,6.6-1.3 c0.3,0,0.6,0.1,1,0.3c0,0,0.1,0,0.1,0c0.7-1.2,1.4-2.3,2.1-3.5c-1.2-1-2.1-2.1-2.8-3.4c-0.7-1.4-1.1-2.7-1.2-4.3 c-0.1-1.4,0.2-2.8,0.8-4.1c1-2.3,2.9-4.2,5.6-5.4c0,0,0,0,0,0c-0.2-0.6-0.4-1.3-0.5-1.9c-0.2-0.7-0.4-1.3-0.5-2l-0.5,0 c-0.2,0-0.4,0-0.5,0c-1.6-0.1-3.2-0.7-4.5-1.7c-3.1-2.3-4.7-4.8-5.1-8c-0.2-1.5,0-2.9,0.5-4.5l-3.6-2.1c-2.4,2.5-5.1,3.8-8.4,3.9 l-0.4,0c-1.5,0-3-0.4-4.5-1.2c-2.3-1.2-4-3-5.1-5.3l-0.4,0.1c-1.2,0.3-2.4,0.6-3.6,0.9c0,0.4,0,0.8,0,1.2l0,1l-0.1,0.2 c-0.1,0.3-0.2,0.5-0.2,0.8c-0.2,0.6-0.4,1.3-0.7,1.9c-0.7,1.5-1.9,2.8-3.6,3.9c-2.1,1.5-4.2,2.2-6.4,2.2l0,0c-0.5,0-1,0-1.6-0.1 c-0.4-0.1-0.7-0.2-1.1-0.3l0,0l-2.1,3.5l0.2,0.2c0.3,0.3,0.6,0.5,0.9,0.8c2,2.1,3,4.6,3,7.2c0,1.4-0.4,2.8-1.2,4.3 c-1.2,2.3-3,4.1-5.4,5.2l0.5,1.8c0.2,0.7,0.4,1.4,0.6,2.2c0.3,0,0.6,0,0.9,0c2.9,0,5.4,1.1,7.4,3.4c1.7,2,2.6,3.9,2.6,6 c0,1.2-0.2,2.4-0.6,4c0,0,0,0.1,0,0.1c1.2,0.7,2.4,1.4,3.6,2.1C89.6,173.1,92.5,171.8,96,171.8z M100.1,164L100.1,164 c-0.6,0-1.3,0-1.9-0.1c-7.4-1.1-12.4-7.7-11.3-15.1c1-7.2,7.6-12.3,15.1-11.4c7.4,1.1,12.4,7.8,11.4,15.1 C112.3,159.1,106.8,164,100.1,164z M100.1,139.5c-5.6,0-10.2,4-11,9.5c-0.9,6.1,3.2,11.6,9.4,12.5c6.2,0.9,11.7-3.4,12.5-9.4 c0.9-6.1-3.3-11.6-9.4-12.5C101.1,139.6,100.6,139.5,100.1,139.5z"/> <path class="st2" d="M140.3,90.5c-0.6,0-1.1-0.2-1.6-0.6c-0.9-0.9-1-2.3-0.1-3.3c22.4-24.1,60.3-25.4,84.3-2.9 c0.9,0.9,1,2.3,0.1,3.3c-0.9,0.9-2.3,1-3.3,0.1c-22.2-20.7-57.1-19.5-77.8,2.7C141.6,90.2,140.9,90.5,140.3,90.5z"/> <path class="st2" d="M128.2,79.1c-0.6,0-1.1-0.2-1.6-0.6c-0.9-0.9-1-2.3-0.1-3.3c10-10.7,22.8-18.3,36.9-21.9 c1.2-0.3,2.5,0.4,2.8,1.7c0.3,1.2-0.4,2.5-1.7,2.8c-13.3,3.4-25.3,10.5-34.7,20.6C129.4,78.9,128.8,79.1,128.2,79.1z"/> <path class="st2" d="M232.7,75.5c-0.6,0-1.1-0.2-1.6-0.6c-2.7-2.6-5.7-4.9-8.8-7c-1.1-0.7-1.3-2.2-0.6-3.2c0.7-1.1,2.2-1.3,3.2-0.6 c3.3,2.2,6.4,4.7,9.3,7.4c0.9,0.9,1,2.3,0.1,3.3C234,75.2,233.4,75.5,232.7,75.5z M213.6,62.6c-0.3,0-0.7-0.1-1-0.2 c-3.4-1.6-6.9-2.9-10.5-3.9c-1.2-0.4-1.9-1.6-1.6-2.9c0.4-1.2,1.6-1.9,2.9-1.6c3.8,1.1,7.6,2.5,11.2,4.2c1.2,0.5,1.7,1.9,1.1,3.1 C215.4,62.1,214.5,62.6,213.6,62.6z M163.9,57.9c-1,0-2-0.7-2.2-1.7c-0.3-1.2,0.4-2.5,1.7-2.8c1.6-0.4,3.1-0.7,4.7-1 c1.3-0.2,2.5,0.6,2.7,1.8c0.2,1.3-0.6,2.5-1.8,2.7c-1.5,0.3-2.9,0.6-4.4,1C164.3,57.9,164.1,57.9,163.9,57.9z M191.5,56.2 c-0.1,0-0.2,0-0.3,0c-2.9-0.4-5.9-0.6-8.8-0.6c0,0-0.1,0-0.1,0l-0.8,0c-0.5,0-0.9,0-1.4,0c-1.3,0.1-2.3-1-2.4-2.2 c0-1.3,1-2.3,2.2-2.4c0.5,0,1,0,1.6,0l0.8,0c3.2,0,6.4,0.2,9.5,0.6c1.3,0.2,2.2,1.3,2,2.6C193.7,55.3,192.7,56.2,191.5,56.2z"/> <path class="st2" d="M100.6,323.6c-16.8,0-30.7-13.3-31.3-30.2c0-0.6,0.5-1.2,1.1-1.2c0.6,0,1.2,0.5,1.2,1.1 c0.6,16,14,28.6,30,27.9c0.6-0.1,1.2,0.5,1.2,1.1c0,0.6-0.5,1.2-1.1,1.2C101.3,323.6,101,323.6,100.6,323.6z"/> <path class="st2" d="M100.6,332.4c-7.2,0-14.2-1.9-20.4-5.6c-0.5-0.3-0.7-1-0.4-1.6c0.3-0.5,1-0.7,1.6-0.4 c6.2,3.7,13.3,5.5,20.6,5.2c0.7,0,1.2,0.5,1.2,1.1c0,0.6-0.5,1.2-1.1,1.2C101.5,332.4,101.1,332.4,100.6,332.4z"/> <path class="st2" d="M77.3,324.6c-0.2,0-0.5-0.1-0.7-0.2c-1.4-1.1-2.7-2.2-4-3.4c-1.6-1.6-3.1-3.2-4.4-5c-0.4-0.5-0.3-1.2,0.3-1.6 c0.5-0.4,1.2-0.3,1.6,0.3c1.2,1.7,2.6,3.3,4.1,4.7c1.2,1.1,2.4,2.2,3.8,3.2c0.5,0.4,0.6,1.1,0.2,1.6 C78,324.4,77.6,324.6,77.3,324.6z M63.8,306.2c-0.5,0-0.9-0.3-1.1-0.8c-1.3-3.7-2-7.7-2.2-11.7c0-0.6,0.5-1.2,1.1-1.2 c0.6,0,1.2,0.5,1.2,1.1c0.1,3.8,0.8,7.5,2,11c0.2,0.6-0.1,1.3-0.7,1.5C64.1,306.1,64,306.2,63.8,306.2z"/> </g> </svg>